<svg width="75" height="19" viewBox="0 0 75 19" fill="none" xmlns="http://www.w3.org/2000/svg">
<path d="M52.6545 15.4849H54.8456V4.32315H52.6545V2.66956H58.3801V4.32315H56.5611V15.4849H62.9688V4.32315H61.1085V2.66956H66.5034V4.32315H64.6844V15.4849H71.0921V4.32315H69.2318V2.66956H74.9987V4.32315H72.8077V15.4849H74.9987V17.1385H52.6545V15.4849Z" fill="#F9F8F4"/>
<path d="M38.6072 11.454H40.3021V12.5495C40.3021 13.1283 40.5019 13.6657 40.9015 14.1618C41.3012 14.6579 41.8248 15.0575 42.4725 15.3606C43.1339 15.65 43.8367 15.7947 44.5808 15.7947C45.4627 15.7947 46.2619 15.5811 46.9785 15.1539C47.7088 14.713 48.2945 14.1067 48.7354 13.335C49.1764 12.5633 49.4382 11.6814 49.5209 10.6892H45.6349C45.6212 10.6892 45.6143 10.6892 45.6143 10.6892C45.6143 10.6892 45.6074 10.6961 45.5936 10.7099V12.3842H44.1674V7.40273H45.5936V9.09766C45.5936 9.09766 45.5936 9.10455 45.5936 9.11833C45.6074 9.11833 45.6143 9.11833 45.6143 9.11833C45.6143 9.11833 45.6212 9.11833 45.6349 9.11833H49.5209C49.4382 8.13995 49.1764 7.26493 48.7354 6.49325C48.2945 5.7078 47.7157 5.10148 46.9992 4.67431C46.2964 4.23335 45.504 4.01287 44.6221 4.01287C43.9193 4.01287 43.251 4.15756 42.6171 4.44694C41.997 4.72254 41.501 5.10148 41.1289 5.58378C40.7569 6.0523 40.5708 6.55526 40.5708 7.09268V8.08483H38.8552V1.98722H40.5088V4.13689C41.0049 3.58569 41.6319 3.15163 42.3898 2.83469C43.1339 2.53153 43.9193 2.37995 44.7461 2.37995C45.9726 2.37995 47.0887 2.70378 48.0947 3.35144C49.1006 3.99909 49.886 4.89479 50.451 6.03852C51.0298 7.18225 51.3192 8.47067 51.3192 9.90378C51.3192 11.3369 51.0298 12.6253 50.451 13.769C49.8723 14.9128 49.0799 15.8085 48.074 16.4561C47.0818 17.1038 45.9588 17.4276 44.7048 17.4276C43.8367 17.4276 43.0099 17.2691 42.2244 16.9522C41.4114 16.6077 40.7569 16.153 40.2608 15.588V17.4276H38.6072V11.454Z" fill="#F9F8F4"/>
<path d="M15.0687 15.4849H17.2183L19.1561 4.32315H16.9719L17.2483 2.66956H21.9052L26.742 14.9061L31.5787 2.66956H36.4361V4.32315H34.2865V15.4849H36.4361V17.1385H30.4625V15.4849H32.5915V4.6332H32.5295L27.5688 17.1385H25.8532L20.8924 4.6332H20.8304L18.8926 15.4849H21.1869V17.1385L14.7792 17.1162L15.0687 15.4849Z" fill="#F9F8F4"/>
<path d="M6.71243 17.5225C5.47702 17.3034 4.40571 16.7784 3.49852 15.9473C2.59132 15.1163 1.94385 14.0746 1.55611 12.8223C1.16837 11.5701 1.09732 10.0473 1.34294 8.63535C1.58857 7.22345 2.10128 6.00487 2.88108 4.97962C3.66087 3.95437 4.60858 3.21009 5.72421 2.74679C6.85342 2.28585 8.03573 2.16284 9.27114 2.37777C10.045 2.51239 10.7657 2.79162 11.4332 3.21547C12.1097 3.66883 12.5192 4.04285 12.8751 4.65025L13.295 2.11093L14.9793 2.11093L13.9342 8.11831L12.3262 7.83356C12.4183 7.30409 12.4091 6.65117 12.1228 6.12582C11.8525 5.58925 11.4423 5.13325 10.8922 4.75781C10.3444 4.36879 9.71759 4.11288 9.01163 3.99007C8.07489 3.8271 7.1827 3.93065 6.33505 4.3007C5.50099 4.67311 4.78998 5.26275 4.20203 6.06961C3.62766 6.87884 3.24482 7.83328 3.05352 8.93294C2.86221 10.0326 2.90023 11.257 3.16757 12.2312C3.44849 13.2079 3.92538 14.0196 4.59825 14.6666C5.27112 15.3135 6.07593 15.72 7.01267 15.8861C7.75935 16.0185 8.47653 15.996 9.1642 15.8185C9.85423 15.6272 10.4318 15.3162 10.897 14.8853C11.3338 14.4807 11.4756 14.0163 11.5832 13.3704L11.9312 11.1897L13.6011 11.4802L12.5329 17.6302L10.8744 17.6302L11.045 16.6C10.4865 17.0856 10.0094 17.2589 9.17651 17.4676C8.36193 17.6511 7.54057 17.6694 6.71243 17.5225Z" fill="#F9F8F4"/>
</svg>
